<svg id="Layer_1" data-name="Layer 1" xmlns="http://www.w3.org/2000/svg" viewBox="0 0 809.54 439.58"><polygon points="696.89 78.5 689.18 117.05 542.68 117.05 542.68 78.5 696.89 78.5"/><polygon points="666.05 232.71 658.34 271.26 542.68 271.26 542.68 232.71 666.05 232.71"/><path d="M187.67,155.6h138l-6.14,38.55h0a91.53,91.53,0,0,1-90.37,77.11H123.22l6.15-38.56h99a45.75,45.75,0,0,0,45.18-38.55h-138l6.15-38.55A91.51,91.51,0,0,1,232,78.5H338l-6.15,38.55h-99A45.75,45.75,0,0,0,187.67,155.6Z"/><path d="M681.47,155.6l-7.71,38.55H521.27v77.11H482.72V194.15H405.48l6.15-38.55h71.09V117.05H439a45.76,45.76,0,0,0-45.19,38.55l-12.29,77.1-6.15,38.56h-46L347.84,155.6a91.51,91.51,0,0,1,90.37-77.1h83.06v77.1Z"/><path d="M115.93,358a10.94,10.94,0,0,1-3.27-8.35,21.32,21.32,0,0,1,.15-2.18L116,320.86a14.86,14.86,0,0,1,15.41-13.6,12.56,12.56,0,0,1,9,3.15,11.15,11.15,0,0,1,3.35,8.5c0,.45-.05,1.12-.15,2l-.38,2.93a1.21,1.21,0,0,1-.34.64.88.88,0,0,1-.64.26h-6.76a.76.76,0,0,1-.6-.26.72.72,0,0,1-.15-.64l.37-3.08a5.7,5.7,0,0,0,.08-1.06,5,5,0,0,0-1.28-3.6,4.51,4.51,0,0,0-3.46-1.36,5.4,5.4,0,0,0-4,1.66,7.33,7.33,0,0,0-2,4.36l-3.31,26.76a5.58,5.58,0,0,0-.08,1.05,5.17,5.17,0,0,0,1.24,3.61,4.42,4.42,0,0,0,3.42,1.35,5.78,5.78,0,0,0,4.14-1.65,6.87,6.87,0,0,0,2-4.36l.83-7.22c.1-.25,0-.38-.3-.38H128a.73.73,0,0,1-.6-.26.72.72,0,0,1-.15-.64l.67-5.48a1.25,1.25,0,0,1,.34-.64.87.87,0,0,1,.64-.27H141.3a.74.74,0,0,1,.6.27.72.72,0,0,1,.15.64l-1.73,13.9a15,15,0,0,1-5,9.89,15.38,15.38,0,0,1-10.45,3.72Q119.19,361.08,115.93,358Z"/><path d="M168.81,359.73l-3.53-21.58a.41.41,0,0,0-.08-.19.25.25,0,0,0-.22-.11h-3.91a.33.33,0,0,0-.38.38l-2.63,21.34a1.14,1.14,0,0,1-.34.64.87.87,0,0,1-.64.27h-6.69c-.55,0-.83-.3-.83-.91l6.24-50.81a1.15,1.15,0,0,1,.38-.64,1,1,0,0,1,.68-.26h13.68a10.46,10.46,0,0,1,8.31,3.49q3,3.5,3,9.28c0,.51,0,1.36-.15,2.56a19.25,19.25,0,0,1-2.78,8.05,14.64,14.64,0,0,1-5.49,5.11.4.4,0,0,0-.3.45l4.36,22.63v.3c0,.5-.28.75-.83.75h-7A.83.83,0,0,1,168.81,359.73Zm-5.34-44-1.88,15c0,.25.1.37.3.37h4.51a6,6,0,0,0,4.93-2.59,11,11,0,0,0,2-6.88A7,7,0,0,0,172,317a4.53,4.53,0,0,0-3.69-1.66h-4.43A.34.34,0,0,0,163.47,315.75Z"/><path d="M190.91,357.85a11.73,11.73,0,0,1-3.31-8.8q0-.6.15-2.25l3.08-25.26a16,16,0,0,1,5.08-10.38,15.29,15.29,0,0,1,10.63-3.9q5.72,0,9,3.19a11.51,11.51,0,0,1,3.3,8.68c0,.5-.05,1.31-.15,2.41l-3.08,25.26a15.92,15.92,0,0,1-5.07,10.37,15.26,15.26,0,0,1-10.64,3.91Q194.22,361.08,190.91,357.85ZM205,351.79a7.83,7.83,0,0,0,2.11-4.62l3.23-26a5.74,5.74,0,0,0,.07-1.05,5.54,5.54,0,0,0-1.31-3.91,4.63,4.63,0,0,0-3.57-1.43,5.52,5.52,0,0,0-4.17,1.77,8,8,0,0,0-2.07,4.62l-3.16,26a8.45,8.45,0,0,0-.07,1.28,5.38,5.38,0,0,0,1.24,3.72,4.41,4.41,0,0,0,3.49,1.39A5.65,5.65,0,0,0,205,351.79Z"/><path d="M229.32,357.7q-3.23-3.39-3.23-9.18c0-.55,0-1.42.15-2.63l4.59-37.13a.83.83,0,0,1,.3-.64,1,1,0,0,1,.67-.26h6.69a.74.74,0,0,1,.76.9l-4.67,38a9.06,9.06,0,0,0-.07,1.35,5.87,5.87,0,0,0,1.24,3.94,4.15,4.15,0,0,0,3.34,1.47,5.35,5.35,0,0,0,4.06-1.88,8.51,8.51,0,0,0,2.11-4.88l4.66-38a1.21,1.21,0,0,1,.34-.64.84.84,0,0,1,.64-.26h6.69a.73.73,0,0,1,.6.26.72.72,0,0,1,.15.64l-4.51,37.13a17.76,17.76,0,0,1-5.15,11,14.63,14.63,0,0,1-10.56,4.17A11.62,11.62,0,0,1,229.32,357.7Z"/><path d="M291.9,311.28a13.52,13.52,0,0,1,3.05,9.21,19.55,19.55,0,0,1-.15,2.78,18,18,0,0,1-4.78,10.9,13,13,0,0,1-9.66,4.13H274.2c-.2,0-.35.13-.45.38l-2.56,20.89a1.2,1.2,0,0,1-.33.64.87.87,0,0,1-.64.27h-6.69c-.56,0-.83-.3-.83-.91L269,308.68a.83.83,0,0,1,.3-.64,1,1,0,0,1,.68-.26h13.68A10.36,10.36,0,0,1,291.9,311.28Zm-7.93,18a10.92,10.92,0,0,0,2.41-5.83,15.25,15.25,0,0,0,.07-1.73A7.49,7.49,0,0,0,285.1,317a4.52,4.52,0,0,0-3.76-1.73H277a.32.32,0,0,0-.37.37l-1.88,15.41c-.1.26,0,.38.3.38h4.36A5.86,5.86,0,0,0,284,329.32Z"/><path d="M348.88,315.11a.84.84,0,0,1-.64.26H332.46a.34.34,0,0,0-.38.38L330.28,330a.32.32,0,0,0,.37.37H340a.78.78,0,0,1,.61.27.75.75,0,0,1,.15.64L340,337a.81.81,0,0,1-.3.64,1,1,0,0,1-.67.27h-9.32c-.26,0-.38.12-.38.37l-1.8,14.28c0,.26.12.38.37.38h15.71a.76.76,0,0,1,.6.26.72.72,0,0,1,.15.64l-.67,5.71a1.21,1.21,0,0,1-.34.64.87.87,0,0,1-.64.27H319c-.55,0-.83-.3-.83-.91l6.24-50.81a1.15,1.15,0,0,1,.38-.64,1,1,0,0,1,.68-.26h23.68a.73.73,0,0,1,.6.26.72.72,0,0,1,.15.64l-.68,5.71A1.18,1.18,0,0,1,348.88,315.11Z"/><path d="M381,308.12a.86.86,0,0,1,.64-.26h6.62a.73.73,0,0,1,.6.26.72.72,0,0,1,.15.64l-6.24,50.81a.8.8,0,0,1-.3.64,1,1,0,0,1-.68.27h-7.59a.83.83,0,0,1-.9-.75l-6.92-31.88c-.05-.15-.14-.21-.26-.19a.24.24,0,0,0-.19.27l-3.84,31.64a1.2,1.2,0,0,1-.33.64.87.87,0,0,1-.64.27h-6.62c-.55,0-.83-.3-.83-.91l6.24-50.81a1.15,1.15,0,0,1,.38-.64,1,1,0,0,1,.68-.26h7.44a.83.83,0,0,1,.9.75l7.07,31.65c0,.15.06.21.19.18a.34.34,0,0,0,.26-.26l3.83-31.42A1.21,1.21,0,0,1,381,308.12Z"/><path d="M398.19,358a10.94,10.94,0,0,1-3.27-8.35c0-.45.05-1.18.15-2.18l3.24-26.61a14.86,14.86,0,0,1,15.41-13.6,12.56,12.56,0,0,1,9,3.15,11.15,11.15,0,0,1,3.35,8.5c0,.45-.05,1.12-.15,2l-.38,2.93a1.21,1.21,0,0,1-.34.64.88.88,0,0,1-.64.26h-6.76a.8.8,0,0,1-.61-.26.72.72,0,0,1-.14-.64l.37-3.08a5.7,5.7,0,0,0,.08-1.06,5,5,0,0,0-1.28-3.6,4.51,4.51,0,0,0-3.46-1.36,5.4,5.4,0,0,0-4,1.66,7.33,7.33,0,0,0-2,4.36l-3.31,26.76a5.58,5.58,0,0,0-.08,1.05,5.17,5.17,0,0,0,1.24,3.61,4.42,4.42,0,0,0,3.42,1.35,5.79,5.79,0,0,0,4.14-1.65,6.87,6.87,0,0,0,2-4.36l.83-7.22c.1-.25,0-.38-.31-.38h-4.43a.73.73,0,0,1-.6-.26.72.72,0,0,1-.15-.64l.67-5.48a1.25,1.25,0,0,1,.34-.64.87.87,0,0,1,.64-.27h12.41a.74.74,0,0,1,.6.27.72.72,0,0,1,.15.64l-1.73,13.9a15,15,0,0,1-5,9.89,15.39,15.39,0,0,1-10.45,3.72Q401.46,361.08,398.19,358Z"/><path d="M431.83,359.57l6.24-50.81a1.15,1.15,0,0,1,.38-.64,1,1,0,0,1,.68-.26h6.69a.73.73,0,0,1,.6.26.72.72,0,0,1,.15.64l-6.24,50.81a1.14,1.14,0,0,1-.34.64.87.87,0,0,1-.64.27h-6.69C432.11,360.48,431.83,360.18,431.83,359.57Z"/><path d="M479.3,308.12a.86.86,0,0,1,.64-.26h6.62a.73.73,0,0,1,.6.26.72.72,0,0,1,.15.64l-6.24,50.81a.8.8,0,0,1-.3.64,1,1,0,0,1-.68.27H472.5a.83.83,0,0,1-.9-.75l-6.92-31.88c-.05-.15-.13-.21-.26-.19a.25.25,0,0,0-.19.27l-3.83,31.64a1.14,1.14,0,0,1-.34.64.87.87,0,0,1-.64.27h-6.61c-.55,0-.83-.3-.83-.91l6.24-50.81a1.14,1.14,0,0,1,.37-.64,1,1,0,0,1,.68-.26h7.44a.85.85,0,0,1,.91.75l7.06,31.65c0,.15.06.21.19.18a.34.34,0,0,0,.26-.26L479,308.76A1.27,1.27,0,0,1,479.3,308.12Z"/><path d="M523.43,315.11a.86.86,0,0,1-.64.26H507a.33.33,0,0,0-.38.38L504.83,330a.32.32,0,0,0,.37.37h9.32a.74.74,0,0,1,.6.27.72.72,0,0,1,.15.64l-.75,5.78a.81.81,0,0,1-.3.64,1,1,0,0,1-.67.27h-9.33a.32.32,0,0,0-.37.37L502,352.58a.33.33,0,0,0,.38.38h15.71a.76.76,0,0,1,.6.26.72.72,0,0,1,.15.64l-.67,5.71a1.21,1.21,0,0,1-.34.64.87.87,0,0,1-.64.27H493.55c-.55,0-.83-.3-.83-.91L499,308.76a1.15,1.15,0,0,1,.38-.64,1,1,0,0,1,.67-.26h23.68a.77.77,0,0,1,.61.26.75.75,0,0,1,.15.64l-.68,5.71A1.18,1.18,0,0,1,523.43,315.11Z"/><path d="M558.91,315.11a.84.84,0,0,1-.64.26H542.49a.34.34,0,0,0-.38.38L540.31,330a.32.32,0,0,0,.37.37H550a.78.78,0,0,1,.61.27.75.75,0,0,1,.15.64L550,337a.81.81,0,0,1-.3.64,1,1,0,0,1-.67.27h-9.32c-.26,0-.38.12-.38.37l-1.8,14.28c0,.26.12.38.37.38h15.71a.76.76,0,0,1,.6.26.72.72,0,0,1,.15.64l-.67,5.71a1.21,1.21,0,0,1-.34.64.87.87,0,0,1-.64.27H529c-.55,0-.83-.3-.83-.91l6.24-50.81a1.15,1.15,0,0,1,.38-.64,1,1,0,0,1,.68-.26h23.68a.73.73,0,0,1,.6.26.72.72,0,0,1,.15.64l-.68,5.71A1.18,1.18,0,0,1,558.91,315.11Z"/><path d="M582.93,359.73l-3.53-21.58a.41.41,0,0,0-.08-.19.25.25,0,0,0-.22-.11h-3.91a.33.33,0,0,0-.38.38l-2.63,21.34a1.14,1.14,0,0,1-.34.64.87.87,0,0,1-.64.27h-6.69c-.55,0-.83-.3-.83-.91l6.24-50.81a1.15,1.15,0,0,1,.38-.64,1,1,0,0,1,.68-.26h13.68a10.46,10.46,0,0,1,8.31,3.49,13.68,13.68,0,0,1,3,9.28c0,.51,0,1.36-.15,2.56a19.25,19.25,0,0,1-2.78,8.05,14.64,14.64,0,0,1-5.49,5.11.4.4,0,0,0-.3.45l4.36,22.63v.3c0,.5-.28.75-.83.75h-7A.83.83,0,0,1,582.93,359.73Zm-5.34-44-1.88,15c0,.25.1.37.3.37h4.51a6,6,0,0,0,4.93-2.59,11,11,0,0,0,2-6.88,7,7,0,0,0-1.35-4.58,4.53,4.53,0,0,0-3.69-1.66H578A.34.34,0,0,0,577.59,315.75Z"/><path d="M601.12,359.57l6.24-50.81a1.1,1.1,0,0,1,.38-.64.94.94,0,0,1,.67-.26h6.69a.73.73,0,0,1,.6.26.72.72,0,0,1,.15.64l-6.23,50.81a1.28,1.28,0,0,1-.34.64.87.87,0,0,1-.64.27H602C601.4,360.48,601.12,360.18,601.12,359.57Z"/><path d="M648.59,308.12a.86.86,0,0,1,.64-.26h6.62a.73.73,0,0,1,.6.26.72.72,0,0,1,.15.64l-6.24,50.81a.8.8,0,0,1-.3.64,1,1,0,0,1-.68.27h-7.59a.83.83,0,0,1-.9-.75L634,327.85c-.05-.15-.14-.21-.26-.19a.24.24,0,0,0-.19.27l-3.83,31.64a1.21,1.21,0,0,1-.34.64.87.87,0,0,1-.64.27h-6.62c-.55,0-.82-.3-.82-.91l6.24-50.81a1.08,1.08,0,0,1,.37-.64,1,1,0,0,1,.68-.26H636a.83.83,0,0,1,.9.75L644,340.26c0,.15.06.21.19.18a.34.34,0,0,0,.26-.26l3.83-31.42A1.29,1.29,0,0,1,648.59,308.12Z"/><path d="M665.81,358a10.91,10.91,0,0,1-3.28-8.35c0-.45.05-1.18.15-2.18l3.24-26.61a14.86,14.86,0,0,1,15.41-13.6,12.56,12.56,0,0,1,9,3.15,11.15,11.15,0,0,1,3.35,8.5c0,.45,0,1.12-.15,2l-.38,2.93a1.21,1.21,0,0,1-.34.64.88.88,0,0,1-.64.26h-6.76a.8.8,0,0,1-.61-.26.72.72,0,0,1-.14-.64l.37-3.08a5.7,5.7,0,0,0,.08-1.06,5,5,0,0,0-1.28-3.6,4.51,4.51,0,0,0-3.46-1.36,5.4,5.4,0,0,0-4,1.66,7.33,7.33,0,0,0-2,4.36L671,347.55a5.58,5.58,0,0,0-.08,1.05,5.17,5.17,0,0,0,1.24,3.61,4.42,4.42,0,0,0,3.42,1.35,5.79,5.79,0,0,0,4.14-1.65,6.87,6.87,0,0,0,2-4.36l.83-7.22c.1-.25,0-.38-.3-.38h-4.44a.73.73,0,0,1-.6-.26.72.72,0,0,1-.15-.64l.67-5.48a1.25,1.25,0,0,1,.34-.64.87.87,0,0,1,.64-.27h12.41a.74.74,0,0,1,.6.27.72.72,0,0,1,.15.64l-1.73,13.9a15,15,0,0,1-5,9.89,15.38,15.38,0,0,1-10.45,3.72Q669.07,361.08,665.81,358Z"/></svg>